# xmcd CD database file
# Copyright (C) 1995-1998 Ti Kan
#
# Track frame offsets:
#	150
#	21025
#	44087
#	60190
#	76700
#	97827
#	119660
#	136537
#	149207
#	168175
#	191600
#
# Disc length: 2796 seconds
#
# Revision: 2
# Processed by: cddbd v1.4b42PL1 Copyright (c) Steve Scherf et al.
# Submitted via: CDex 1.30Release
#
DISCID=8b0aea0b
DTITLE=Ester Brohus - The Letter
DYEAR=1994
DGENRE=Country
TTITLE0=Cry My Heart
TTITLE1=If The Sky Falls Down
TTITLE2=Born To Run
TTITLE3=Whats Shakin' On The Hill
TTITLE4=Hold Me Close
TTITLE5=River Of Tears
TTITLE6=Words Could Never Heal A Broken Heart
TTITLE7=Tonight
TTITLE8=Hard Time
TTITLE9=Walking With Geronimo
TTITLE10=The Letter
EXTD=YEAR: 1994 ID3G:   2
EXTT0=
EXTT1=
EXTT2=
EXTT3=
EXTT4=
EXTT5=
EXTT6=
EXTT7=
EXTT8=
EXTT9=
EXTT10=
PLAYORDER=
